<svg aria-hidden="true" style="width:0;height:0;position:absolute;overflow:hidden" xmlns="http://www.w3.org/2000/svg"><defs><symbol id="icon-burger" viewBox="0 0 64 64"><path stroke-linejoin="round" stroke-linecap="round" stroke-width="5.333" d="M8 32h48M8 16h48M8 48h48"/></symbol><symbol id="icon-chevron-right" viewBox="0 0 64 64"><path fill="none" stroke="#f4f4f4" style="stroke:var(--color1,#f4f4f4)" stroke-linejoin="round" stroke-linecap="round" stroke-width="5.333" d="m24 48 16-16-16-16"/></symbol><symbol id="icon-heart" viewBox="0 0 64 64"><path fill="#4440f6" style="fill:var(--color2,#4440f6)" d="M64 32c0 17.673-14.327 32-32 32S0 49.673 0 32C0 14.327 14.327 0 32 0s32 14.327 32 32z"/><path fill="none" stroke="#f4f4f4" style="stroke:var(--color1,#f4f4f4)" stroke-linejoin="round" stroke-linecap="round" stroke-width="2" d="M45.261 20.915a8.244 8.244 0 0 0-5.835-2.417 8.245 8.245 0 0 0-5.835 2.417l-1.59 1.59-1.59-1.59a8.254 8.254 0 0 0-11.67 0 8.252 8.252 0 0 0 0 11.67l13.26 13.26 13.26-13.26a8.26 8.26 0 0 0 2.417-5.835 8.245 8.245 0 0 0-2.417-5.835v0z"/></symbol><symbol id="icon-home" viewBox="0 0 32 32"><path fill="#4440f6" style="fill:var(--color1,#4440f6)" d="M32 16c0 8.837-7.163 16-16 16S0 24.837 0 16 7.163 0 16 0s16 7.163 16 16z"/><path fill="none" stroke="#f4f4f4" style="stroke:var(--color2,#f4f4f4)" stroke-linejoin="round" stroke-linecap="round" d="M9.25 13.75 16 8.5l6.75 5.25V22a1.503 1.503 0 0 1-1.5 1.5h-10.5a1.503 1.503 0 0 1-1.5-1.5v-8.25z"/><path fill="none" stroke="#f4f4f4" style="stroke:var(--color2,#f4f4f4)" stroke-linejoin="round" stroke-linecap="round" d="M13.75 23.5V16h4.5v7.5"/></symbol><symbol id="icon-read" viewBox="0 0 64 64"><path fill="#4440f6" style="fill:var(--color2,#4440f6)" d="M64 32c0 17.673-14.327 32-32 32S0 49.673 0 32C0 14.327 14.327 0 32 0s32 14.327 32 32z"/><path fill="none" stroke="#f4f4f4" style="stroke:var(--color1,#f4f4f4)" stroke-linejoin="round" stroke-linecap="round" stroke-width="2" d="M17 18.5h9a5.996 5.996 0 0 1 6 6v21a4.5 4.5 0 0 0-4.5-4.5H17V18.5z"/><path fill="none" stroke="#f4f4f4" style="stroke:var(--color1,#f4f4f4)" stroke-linejoin="round" stroke-linecap="round" stroke-width="2" d="M47 18.5h-9a5.996 5.996 0 0 0-6 6v21a4.5 4.5 0 0 1 4.5-4.5H47V18.5z"/></symbol><symbol id="icon-moon" viewBox="0 0 64 64"><path stroke-linejoin="round" stroke-linecap="round" stroke-width="4.571" d="M55.999 34.106A24.005 24.005 0 0 1 40.254 54.47a23.996 23.996 0 0 1-25.123-5.602A24 24 0 0 1 29.893 8 18.666 18.666 0 0 0 56 34.107z"/></symbol><symbol id="icon-search" viewBox="0 0 64 64"><path d="M26.927 47.452a20.4 20.4 0 0 0 12.565-4.331L50.772 54.4l3.628-3.628-11.28-11.279a20.403 20.403 0 0 0 4.334-12.567c0-11.318-9.209-20.526-20.527-20.526S6.4 15.609 6.4 26.926s9.209 20.526 20.527 20.526zm0-35.921c8.491 0 15.395 6.904 15.395 15.395S35.417 42.32 26.927 42.32c-8.491 0-15.395-6.904-15.395-15.394s6.905-15.395 15.395-15.395z"/></symbol><symbol id="icon-sun" viewBox="0 0 64 64"><path stroke-linejoin="round" stroke-linecap="round" stroke-width="4.571" d="M31.998 3.556v5.172m0 46.545v5.172M11.88 11.882l3.672 3.672m32.892 32.892 3.672 3.672M3.554 32h5.172m46.545 0h5.172M11.88 52.118l3.672-3.672m32.892-32.892 3.672-3.672M44.927 32c0 7.141-5.789 12.929-12.929 12.929S19.069 39.14 19.069 32c0-7.141 5.789-12.929 12.929-12.929S44.927 24.86 44.927 32z"/></symbol><symbol id="icon-toggle" viewBox="0 0 122 64"><path fill="#fff" style="fill:var(--color5,#fff)" d="M30.476 2.445h60.952c16.323 0 29.555 13.232 29.555 29.555s-13.232 29.555-29.555 29.555H30.476C14.153 61.555.921 48.323.921 32S14.153 2.445 30.476 2.445z"/><path fill="#4b48db" style="fill:var(--color4,#4b48db)" d="M51.809 32c0 13.465-10.916 24.381-24.381 24.381S3.047 45.465 3.047 32 13.963 7.619 27.428 7.619 51.809 18.535 51.809 32z"/><path fill="none" stroke="#4b48db" style="stroke:var(--color4,#4b48db)" stroke-width="1.843" d="M30.476 2.445h60.952c16.323 0 29.555 13.232 29.555 29.555s-13.232 29.555-29.555 29.555H30.476C14.153 61.555.921 48.323.921 32S14.153 2.445 30.476 2.445z"/></symbol><symbol id="close-modal"><path stroke-linecap="round" stroke-linejoin="round" stroke-width="2" d="M18 6 6 18M6 6l12 12"/></symbol></defs></svg>