<svg aria-hidden="true" style="width:0;height:0;position:absolute;overflow:hidden" xmlns="http://www.w3.org/2000/svg"><defs><symbol id="icon-arrow-right" viewBox="0 0 19 32"><path d="M18.667 16c0-.773-.267-1.387-.88-1.973L4.187.694a2.263 2.263 0 0 0-1.633-.695L2.476 0h.004A2.48 2.48 0 0 0 0 2.48c0 .667.267 1.28.8 1.787L12.8 16 .8 27.733a2.453 2.453 0 0 0 1.652 4.266h.001c.667 0 1.253-.24 1.707-.72l13.6-13.333c.551-.473.9-1.168.907-1.946v-.001z"/></symbol><symbol id="icon-big-arrow-left" viewBox="0 0 16 32"><path d="M0 16c0 .604.196 1.102.64 1.547l12.196 12.978c.356.373.782.587 1.298.587 1.031 0 1.867-.889 1.867-2.027 0-.569-.213-1.067-.569-1.44L4.445 16.001 15.432 4.357c.356-.391.569-.889.569-1.44 0-1.138-.836-2.027-1.867-2.027-.516 0-.96.196-1.298.587L.64 14.437c-.444.462-.64.96-.64 1.564z"/></symbol><symbol id="icon-big-arrow-right" viewBox="0 0 16 32"><path d="M16 16c0-.604-.213-1.102-.64-1.564L3.164 1.458A1.739 1.739 0 0 0 1.876.889h-.01.001C.8.889 0 1.778 0 2.916c0 .533.196 1.067.569 1.44L11.538 16 .569 27.644A2.123 2.123 0 0 0 0 29.084c0 1.138.818 2.027 1.867 2.027a1.774 1.774 0 0 0 1.296-.585l.001-.002L15.36 17.546c.444-.444.64-.942.64-1.547z"/></symbol><symbol id="icon-arrow-down" viewBox="0 0 53 32"><path d="M6.258 0 0 6.08 26.667 32 53.334 6.08 47.076 0 26.667 19.769 6.258 0z"/></symbol><symbol id="icon-arrow-up" viewBox="0 0 32 32"><path d="m8.211 18.182-2.393-2.214L16 6.546l10.182 9.422-2.393 2.214L16 10.99l-7.789 7.192z"/></symbol><symbol id="icon-calendar" viewBox="0 0 32 32"><path d="M22.667 4H28a1.335 1.335 0 0 1 1.334 1.334v21.333A1.335 1.335 0 0 1 28 28.001H4a1.33 1.33 0 0 1-1.333-1.334V5.334A1.333 1.333 0 0 1 4 4h5.333V1.333H12V4h8V1.333h2.667V4zm4 10.667H5.334v10.667h21.333V14.667zm-6.667-8h-8v2.667H9.333V6.667h-4V12h21.333V6.667h-4v2.667h-2.667V6.667zM8 17.333h2.667V20H8v-2.667zm6.667 0h2.667V20h-2.667v-2.667zm6.666 0H24V20h-2.667v-2.667z"/></symbol></defs></svg>