<svg width="20" height="19" viewBox="0 0 20 19" fill="none" xmlns="http://www.w3.org/2000/svg">
<path d="M8.33342 14.2499C9.81256 14.2496 11.2491 13.7792 12.4142 12.9136L16.0776 16.3938L17.2559 15.2743L13.5926 11.7942C14.5042 10.6872 14.9997 9.32214 15.0001 7.91658C15.0001 4.42454 12.0092 1.58325 8.33342 1.58325C4.65758 1.58325 1.66675 4.42454 1.66675 7.91658C1.66675 11.4086 4.65758 14.2499 8.33342 14.2499ZM8.33342 3.16659C11.0909 3.16659 13.3334 5.29696 13.3334 7.91658C13.3334 10.5362 11.0909 12.6666 8.33342 12.6666C5.57591 12.6666 3.33341 10.5362 3.33341 7.91658C3.33341 5.29696 5.57591 3.16659 8.33342 3.16659Z" fill="#111321"/>
</svg>
