<svg aria-hidden="true" style="position: absolute; width: 0; height: 0; overflow: hidden;" version="1.1"
    xmlns="http://www.w3.org/2000/svg" xmlns:xlink="http://www.w3.org/1999/xlink">
    <defs>
        <symbol id="icon-burger" viewBox="0 0 64 64">
            <path stroke-linejoin="round" stroke-linecap="round" stroke-miterlimit="4" stroke-width="5.3333"
                d="M8 32h48"></path>
            <path stroke-linejoin="round" stroke-linecap="round" stroke-miterlimit="4" stroke-width="5.3333"
                d="M8 16h48"></path>
            <path stroke-linejoin="round" stroke-linecap="round" stroke-miterlimit="4" stroke-width="5.3333"
                d="M8 48h48"></path>
        </symbol>
        <symbol id="icon-chevron-right" viewBox="0 0 64 64">
            <path fill="none" stroke="#f4f4f4" style="stroke: var(--color1, #f4f4f4)" stroke-linejoin="round"
                stroke-linecap="round" stroke-miterlimit="4" stroke-width="5.3333" d="M24 48l16-16-16-16"></path>
        </symbol>

        <symbol id="icon-heart" viewBox="0 0 64 64">
            <path fill="#4440f6" style="fill: var(--color2, #4440f6)"
                d="M64 32c0 17.673-14.327 32-32 32s-32-14.327-32-32c0-17.673 14.327-32 32-32s32 14.327 32 32z"></path>
            <path fill="none" stroke="#f4f4f4" style="stroke: var(--color1, #f4f4f4)" stroke-linejoin="round"
                stroke-linecap="round" stroke-miterlimit="4" stroke-width="2"
                d="M45.261 20.915c-0.766-0.766-1.676-1.375-2.677-1.789s-2.074-0.628-3.158-0.628c-1.084 0-2.157 0.213-3.158 0.628s-1.911 1.023-2.677 1.789l-1.59 1.59-1.59-1.59c-1.548-1.547-3.646-2.417-5.835-2.417s-4.288 0.869-5.835 2.417c-1.548 1.548-2.417 3.647-2.417 5.835s0.869 4.288 2.417 5.835l13.26 13.26 13.26-13.26c0.766-0.766 1.374-1.676 1.789-2.677s0.628-2.074 0.628-3.158c0-1.084-0.213-2.157-0.628-3.158s-1.023-1.911-1.789-2.677v0z">
            </path>
        </symbol>
        <symbol id="icon-home" viewBox="0 0 32 32">
            <path fill="#4440f6" style="fill: var(--color1, #4440f6)"
                d="M32 16c0 8.837-7.163 16-16 16s-16-7.163-16-16c0-8.837 7.163-16 16-16s16 7.163 16 16z"></path>
            <path fill="none" stroke="#f4f4f4" style="stroke: var(--color2, #f4f4f4)" stroke-linejoin="round"
                stroke-linecap="round" stroke-miterlimit="4" stroke-width="1"
                d="M9.25 13.75l6.75-5.25 6.75 5.25v8.25c0 0.398-0.158 0.779-0.439 1.061s-0.663 0.439-1.061 0.439h-10.5c-0.398 0-0.779-0.158-1.061-0.439s-0.439-0.663-0.439-1.061v-8.25z">
            </path>
            <path fill="none" stroke="#f4f4f4" style="stroke: var(--color2, #f4f4f4)" stroke-linejoin="round"
                stroke-linecap="round" stroke-miterlimit="4" stroke-width="1" d="M13.75 23.5v-7.5h4.5v7.5"></path>
        </symbol>
        <symbol id="icon-read" viewBox="0 0 64 64">
            <path fill="#4440f6" style="fill: var(--color2, #4440f6)"
                d="M64 32c0 17.673-14.327 32-32 32s-32-14.327-32-32c0-17.673 14.327-32 32-32s32 14.327 32 32z"></path>
            <path fill="none" stroke="#f4f4f4" style="stroke: var(--color1, #f4f4f4)" stroke-linejoin="round"
                stroke-linecap="round" stroke-miterlimit="4" stroke-width="2"
                d="M17 18.5h9c1.591 0 3.117 0.632 4.243 1.757s1.757 2.651 1.757 4.243v21c0-1.193-0.474-2.338-1.318-3.182s-1.989-1.318-3.182-1.318h-10.5v-22.5z">
            </path>
            <path fill="none" stroke="#f4f4f4" style="stroke: var(--color1, #f4f4f4)" stroke-linejoin="round"
                stroke-linecap="round" stroke-miterlimit="4" stroke-width="2"
                d="M47 18.5h-9c-1.591 0-3.117 0.632-4.243 1.757s-1.757 2.651-1.757 4.243v21c0-1.193 0.474-2.338 1.318-3.182s1.989-1.318 3.182-1.318h10.5v-22.5z">
            </path>
        </symbol>
        <symbol id="icon-moon" viewBox="0 0 64 64">
            <path stroke-linejoin="round" stroke-linecap="round" stroke-miterlimit="4" stroke-width="4.5714"
                d="M55.999 34.106c-0.42 4.539-2.123 8.865-4.911 12.471s-6.546 6.344-10.834 7.893c-4.287 1.549-8.927 1.844-13.376 0.852s-8.524-3.231-11.747-6.454c-3.223-3.223-5.462-7.298-6.454-11.748s-0.697-9.089 0.852-13.376 4.286-8.045 7.893-10.833c3.606-2.788 7.932-4.492 12.471-4.911-2.658 3.595-3.936 8.025-3.604 12.484s2.254 8.65 5.416 11.811c3.162 3.161 7.353 5.083 11.811 5.416s8.888-0.946 12.484-3.604v0z">
            </path>
        </symbol>
        <symbol id="icon-search" viewBox="0 0 64 64">
            <path
                d="M26.927 47.452c4.554-0.001 8.978-1.525 12.565-4.331l11.28 11.279 3.628-3.628-11.28-11.279c2.807-3.588 4.333-8.012 4.334-12.567 0-11.318-9.209-20.526-20.527-20.526s-20.527 9.209-20.527 20.526 9.209 20.526 20.527 20.526zM26.927 11.531c8.491 0 15.395 6.904 15.395 15.395s-6.905 15.394-15.395 15.394c-8.491 0-15.395-6.904-15.395-15.394s6.905-15.395 15.395-15.395z">
            </path>
        </symbol>
        <symbol id="icon-sun" viewBox="0 0 64 64">
            <path stroke-linejoin="round" stroke-linecap="round" stroke-miterlimit="4" stroke-width="4.5714"
                d="M31.998 3.556v5.172M31.998 55.273v5.172M11.88 11.882l3.672 3.672M48.444 48.446l3.672 3.672M3.554 32h5.172M55.271 32h5.172M11.88 52.118l3.672-3.672M48.444 15.554l3.672-3.672M44.927 32c0 7.141-5.789 12.929-12.929 12.929s-12.929-5.789-12.929-12.929c0-7.141 5.789-12.929 12.929-12.929s12.929 5.789 12.929 12.929z">
            </path>
        </symbol>
        <symbol id="icon-toggle" viewBox="0 0 122 64">
            <path fill="#fff" style="fill: var(--color5, #fff)"
                d="M30.476 2.445h60.952c16.323 0 29.555 13.232 29.555 29.555s-13.232 29.555-29.555 29.555h-60.952c-16.323 0-29.555-13.232-29.555-29.555s13.232-29.555 29.555-29.555z">
            </path>
            <path fill="#4b48db" style="fill: var(--color4, #4b48db)"
                d="M51.809 32c0 13.465-10.916 24.381-24.381 24.381s-24.381-10.916-24.381-24.381c0-13.465 10.916-24.381 24.381-24.381s24.381 10.916 24.381 24.381z">
            </path>
            <path fill="none" stroke="#4b48db" style="stroke: var(--color4, #4b48db)" stroke-linejoin="miter"
                stroke-linecap="butt" stroke-miterlimit="4" stroke-width="1.8429"
                d="M30.476 2.445h60.952c16.323 0 29.555 13.232 29.555 29.555s-13.232 29.555-29.555 29.555h-60.952c-16.323 0-29.555-13.232-29.555-29.555s13.232-29.555 29.555-29.555z">
            </path>
        </symbol>

        <symbol id="close-modal" width="24" height="24">
            <path stroke-linecap="round" stroke-linejoin="round" stroke-width="2" d="M18 6 6 18M6 6l12 12" />
        </symbol>
    </defs>
</svg>