<svg aria-hidden="true" style="position: absolute; width: 0; height: 0; overflow: hidden;" version="1.1" xmlns="http://www.w3.org/2000/svg" xmlns:xlink="http://www.w3.org/1999/xlink">
<defs>
<symbol id="icon-arrow-right" viewBox="0 0 19 32">
<path d="M18.667 16c0-0.773-0.267-1.387-0.88-1.973l-13.6-13.333c-0.413-0.428-0.992-0.695-1.633-0.695-0.026 0-0.052 0-0.078 0.001l0.004-0c-1.37 0-2.48 1.11-2.48 2.48v0c0 0.667 0.267 1.28 0.8 1.787l12 11.733-12 11.733c-0.493 0.45-0.801 1.096-0.801 1.813 0 1.355 1.098 2.453 2.453 2.453 0 0 0.001 0 0.001 0h-0c0.667 0 1.253-0.24 1.707-0.72l13.6-13.333c0.551-0.473 0.9-1.168 0.907-1.946v-0.001z"></path>
</symbol>
<symbol id="icon-big-arrow-left" viewBox="0 0 16 32">
<path d="M0 16c0 0.604 0.196 1.102 0.64 1.547l12.196 12.978c0.356 0.373 0.782 0.587 1.298 0.587 1.031 0 1.867-0.889 1.867-2.027 0-0.569-0.213-1.067-0.569-1.44l-10.987-11.644 10.987-11.644c0.356-0.391 0.569-0.889 0.569-1.44 0-1.138-0.836-2.027-1.867-2.027-0.516 0-0.96 0.196-1.298 0.587l-12.196 12.96c-0.444 0.462-0.64 0.96-0.64 1.564z"></path>
</symbol>
<symbol id="icon-big-arrow-right" viewBox="0 0 16 32">
<path d="M16 16c0-0.604-0.213-1.102-0.64-1.564l-12.196-12.978c-0.32-0.35-0.778-0.569-1.288-0.569-0.003 0-0.007 0-0.010 0h0.001c-1.067 0-1.867 0.889-1.867 2.027 0 0.533 0.196 1.067 0.569 1.44l10.969 11.644-10.969 11.644c-0.356 0.391-0.569 0.889-0.569 1.44 0 1.138 0.818 2.027 1.867 2.027 0.515-0.007 0.976-0.231 1.296-0.585l0.001-0.002 12.196-12.978c0.444-0.444 0.64-0.942 0.64-1.547z"></path>
</symbol>
<symbol id="icon-arrow-down" viewBox="0 0 53 32">
<path d="M6.258 0l-6.258 6.080 26.667 25.92 26.667-25.92-6.258-6.080-20.409 19.769-20.409-19.769z"></path>
</symbol>
<symbol id="icon-arrow-up" viewBox="0 0 32 32">
<path d="M8.211 18.182l-2.393-2.214 10.182-9.422 10.182 9.422-2.393 2.214-7.789-7.192-7.789 7.192z"></path>
</symbol>
<symbol id="icon-calendar" viewBox="0 0 32 32">
<path d="M22.667 4h5.333c0.354 0 0.693 0.14 0.943 0.391s0.391 0.589 0.391 0.943v21.333c0 0.354-0.14 0.693-0.391 0.943s-0.589 0.391-0.943 0.391h-24c-0.354 0-0.693-0.14-0.943-0.391s-0.39-0.589-0.39-0.943v-21.333c0-0.354 0.14-0.693 0.39-0.943s0.589-0.391 0.943-0.391h5.333v-2.667h2.667v2.667h8v-2.667h2.667v2.667zM26.667 14.667h-21.333v10.667h21.333v-10.667zM20 6.667h-8v2.667h-2.667v-2.667h-4v5.333h21.333v-5.333h-4v2.667h-2.667v-2.667zM8 17.333h2.667v2.667h-2.667v-2.667zM14.667 17.333h2.667v2.667h-2.667v-2.667zM21.333 17.333h2.667v2.667h-2.667v-2.667z"></path>
</symbol>
</defs>
</svg>
